<?xml version="1.0" encoding="UTF-8" standalone="no"?>
<!DOCTYPE svg PUBLIC "-//W3C//DTD SVG 1.1//EN"
 "http://www.w3.org/Graphics/SVG/1.1/DTD/svg11.dtd">
<!-- Generated by graphviz version 13.1.0 (20250701.0955)
 -->
<!-- Pages: 1 -->
<svg width="1026pt" height="1588pt"
 viewBox="0.00 0.00 1026.00 1588.00" xmlns="http://www.w3.org/2000/svg" xmlns:xlink="http://www.w3.org/1999/xlink">
<g id="graph0" class="graph" transform="scale(4.16667 4.16667) rotate(0) translate(4 377)">
<polygon fill="white" stroke="none" points="-4,4 -4,-377 242.28,-377 242.28,4 -4,4"/>
<text xml:space="preserve" text-anchor="middle" x="119.14" y="-12.05" font-family="Times,serif" font-size="16.00">Core 模組依賴圖</text>
<!-- Invest_V3Tests -->
<g id="node1" class="node">
<title>Invest_V3Tests</title>
<path fill="#dddddd" stroke="black" d="M72.25,-73C72.25,-73 17.25,-73 17.25,-73 11.25,-73 5.25,-67 5.25,-61 5.25,-61 5.25,-43.25 5.25,-43.25 5.25,-37.25 11.25,-31.25 17.25,-31.25 17.25,-31.25 72.25,-31.25 72.25,-31.25 78.25,-31.25 84.25,-37.25 84.25,-43.25 84.25,-43.25 84.25,-61 84.25,-61 84.25,-67 78.25,-73 72.25,-73"/>
<text xml:space="preserve" text-anchor="middle" x="44.75" y="-59.5" font-family="Times,serif" font-size="10.00">Invest_V3Tests</text>
<text xml:space="preserve" text-anchor="middle" x="44.75" y="-48.25" font-family="Times,serif" font-size="10.00">Invest_V3Tests</text>
<text xml:space="preserve" text-anchor="middle" x="44.75" y="-37" font-family="Times,serif" font-size="10.00">LOC: 13</text>
</g>
<!-- Invest_V3UITests -->
<g id="node2" class="node">
<title>Invest_V3UITests</title>
<path fill="#dddddd" stroke="black" d="M77.5,-133C77.5,-133 12,-133 12,-133 6,-133 0,-127 0,-121 0,-121 0,-103.25 0,-103.25 0,-97.25 6,-91.25 12,-91.25 12,-91.25 77.5,-91.25 77.5,-91.25 83.5,-91.25 89.5,-97.25 89.5,-103.25 89.5,-103.25 89.5,-121 89.5,-121 89.5,-127 83.5,-133 77.5,-133"/>
<text xml:space="preserve" text-anchor="middle" x="44.75" y="-119.5" font-family="Times,serif" font-size="10.00">Invest_V3UITests</text>
<text xml:space="preserve" text-anchor="middle" x="44.75" y="-108.25" font-family="Times,serif" font-size="10.00">Invest_V3UITests</text>
<text xml:space="preserve" text-anchor="middle" x="44.75" y="-97" font-family="Times,serif" font-size="10.00">LOC: 32</text>
</g>
<!-- Font+Style -->
<g id="node3" class="node">
<title>Font+Style</title>
<path fill="#dddddd" stroke="black" d="M63.62,-193.38C63.62,-193.38 25.88,-193.38 25.88,-193.38 19.88,-193.38 13.88,-187.38 13.88,-181.38 13.88,-181.38 13.88,-162.88 13.88,-162.88 13.88,-156.88 19.88,-150.88 25.88,-150.88 25.88,-150.88 63.62,-150.88 63.62,-150.88 69.62,-150.88 75.62,-156.88 75.62,-162.88 75.62,-162.88 75.62,-181.38 75.62,-181.38 75.62,-187.38 69.62,-193.38 63.62,-193.38"/>
<text xml:space="preserve" text-anchor="middle" x="44.75" y="-179.88" font-family="Times,serif" font-size="10.00">Font+Style</text>
<text xml:space="preserve" text-anchor="middle" x="44.75" y="-156.62" font-family="Times,serif" font-size="10.00">LOC: 14</text>
</g>
<!-- GiftItem -->
<g id="node4" class="node">
<title>GiftItem</title>
<path fill="#dddddd" stroke="black" d="M59.75,-253C59.75,-253 29.75,-253 29.75,-253 23.75,-253 17.75,-247 17.75,-241 17.75,-241 17.75,-223.25 17.75,-223.25 17.75,-217.25 23.75,-211.25 29.75,-211.25 29.75,-211.25 59.75,-211.25 59.75,-211.25 65.75,-211.25 71.75,-217.25 71.75,-223.25 71.75,-223.25 71.75,-241 71.75,-241 71.75,-247 65.75,-253 59.75,-253"/>
<text xml:space="preserve" text-anchor="middle" x="44.75" y="-239.5" font-family="Times,serif" font-size="10.00">GiftItem</text>
<text xml:space="preserve" text-anchor="middle" x="44.75" y="-228.25" font-family="Times,serif" font-size="10.00">GiftItem</text>
<text xml:space="preserve" text-anchor="middle" x="44.75" y="-217" font-family="Times,serif" font-size="10.00">LOC: 24</text>
</g>
<!-- WalletTransaction -->
<g id="node7" class="node">
<title>WalletTransaction</title>
<ellipse fill="none" stroke="black" stroke-dasharray="5,2" cx="181.89" cy="-232.12" rx="56.39" ry="20.51"/>
<text xml:space="preserve" text-anchor="middle" x="181.89" y="-234.07" font-family="Times,serif" font-size="9.00">WalletTransaction</text>
<text xml:space="preserve" text-anchor="middle" x="181.89" y="-223.57" font-family="Times,serif" font-size="9.00">(Authentication)</text>
</g>
<!-- GiftItem&#45;&gt;WalletTransaction -->
<g id="edge1" class="edge">
<title>GiftItem&#45;&gt;WalletTransaction</title>
<path fill="none" stroke="gray" stroke-dasharray="5,2" d="M72.13,-232.12C84.19,-232.12 99.08,-232.12 113.93,-232.12"/>
<polygon fill="gray" stroke="gray" points="113.71,-235.63 123.71,-232.13 113.71,-228.63 113.71,-235.63"/>
</g>
<!-- Int+Formatted -->
<g id="node5" class="node">
<title>Int+Formatted</title>
<path fill="#dddddd" stroke="black" d="M70,-313C70,-313 19.5,-313 19.5,-313 13.5,-313 7.5,-307 7.5,-301 7.5,-301 7.5,-283.25 7.5,-283.25 7.5,-277.25 13.5,-271.25 19.5,-271.25 19.5,-271.25 70,-271.25 70,-271.25 76,-271.25 82,-277.25 82,-283.25 82,-283.25 82,-301 82,-301 82,-307 76,-313 70,-313"/>
<text xml:space="preserve" text-anchor="middle" x="44.75" y="-299.5" font-family="Times,serif" font-size="10.00">Int+Formatted</text>
<text xml:space="preserve" text-anchor="middle" x="44.75" y="-288.25" font-family="Times,serif" font-size="10.00">TokenSystem</text>
<text xml:space="preserve" text-anchor="middle" x="44.75" y="-277" font-family="Times,serif" font-size="10.00">LOC: 111</text>
</g>
<!-- GridTable -->
<g id="node6" class="node">
<title>GridTable</title>
<path fill="#dddddd" stroke="black" d="M61.38,-373C61.38,-373 28.13,-373 28.13,-373 22.12,-373 16.13,-367 16.13,-361 16.13,-361 16.13,-343.25 16.13,-343.25 16.13,-337.25 22.13,-331.25 28.13,-331.25 28.13,-331.25 61.38,-331.25 61.38,-331.25 67.38,-331.25 73.38,-337.25 73.38,-343.25 73.38,-343.25 73.38,-361 73.38,-361 73.38,-367 67.38,-373 61.38,-373"/>
<text xml:space="preserve" text-anchor="middle" x="44.75" y="-359.5" font-family="Times,serif" font-size="10.00">GridTable</text>
<text xml:space="preserve" text-anchor="middle" x="44.75" y="-348.25" font-family="Times,serif" font-size="10.00">GridTable</text>
<text xml:space="preserve" text-anchor="middle" x="44.75" y="-337" font-family="Times,serif" font-size="10.00">LOC: 52</text>
</g>
</g>
</svg>
