<?xml version="1.0" encoding="UTF-8" standalone="no"?>
<!DOCTYPE svg PUBLIC "-//W3C//DTD SVG 1.1//EN"
 "http://www.w3.org/Graphics/SVG/1.1/DTD/svg11.dtd">
<!-- Generated by graphviz version 13.1.0 (20250701.0955)
 -->
<!-- Pages: 1 -->
<svg width="1548pt" height="2400pt"
 viewBox="0.00 0.00 1548.00 2400.00" xmlns="http://www.w3.org/2000/svg" xmlns:xlink="http://www.w3.org/1999/xlink">
<g id="graph0" class="graph" transform="scale(3.26309 3.26309) rotate(0) translate(4 731.5)">
<polygon fill="white" stroke="none" points="-4,4 -4,-731.5 470.3,-731.5 470.3,4 -4,4"/>
<text xml:space="preserve" text-anchor="middle" x="233.15" y="-12.05" font-family="Times,serif" font-size="16.00">Article 模組依賴圖</text>
<!-- TableEditorView -->
<g id="node1" class="node">
<title>TableEditorView</title>
<path fill="#a29bfe" stroke="black" d="M285.12,-442.25C285.12,-442.25 222.62,-442.25 222.62,-442.25 216.62,-442.25 210.62,-436.25 210.62,-430.25 210.62,-430.25 210.62,-401.25 210.62,-401.25 210.62,-395.25 216.62,-389.25 222.62,-389.25 222.62,-389.25 285.12,-389.25 285.12,-389.25 291.12,-389.25 297.12,-395.25 297.12,-401.25 297.12,-401.25 297.12,-430.25 297.12,-430.25 297.12,-436.25 291.12,-442.25 285.12,-442.25"/>
<text xml:space="preserve" text-anchor="middle" x="253.88" y="-428.75" font-family="Times,serif" font-size="10.00">TableEditorView</text>
<text xml:space="preserve" text-anchor="middle" x="253.88" y="-417.5" font-family="Times,serif" font-size="10.00">TableEditorView</text>
<text xml:space="preserve" text-anchor="middle" x="253.88" y="-406.25" font-family="Times,serif" font-size="10.00">TablePlaceholder</text>
<text xml:space="preserve" text-anchor="middle" x="253.88" y="-395" font-family="Times,serif" font-size="10.00">LOC: 144</text>
</g>
<!-- Article -->
<g id="node10" class="node">
<title>Article</title>
<ellipse fill="none" stroke="black" stroke-dasharray="5,2" cx="414.15" cy="-415.75" rx="52.15" ry="20.51"/>
<text xml:space="preserve" text-anchor="middle" x="414.15" y="-417.7" font-family="Times,serif" font-size="9.00">Article</text>
<text xml:space="preserve" text-anchor="middle" x="414.15" y="-407.2" font-family="Times,serif" font-size="9.00">(Authentication)</text>
</g>
<!-- TableEditorView&#45;&gt;Article -->
<g id="edge3" class="edge">
<title>TableEditorView&#45;&gt;Article</title>
<path fill="none" stroke="gray" stroke-dasharray="5,2" d="M297.29,-415.75C313.51,-415.75 332.38,-415.75 350.13,-415.75"/>
<polygon fill="gray" stroke="gray" points="350.07,-419.25 360.07,-415.75 350.07,-412.25 350.07,-419.25"/>
</g>
<!-- PublishSettingsSheet -->
<g id="node2" class="node">
<title>PublishSettingsSheet</title>
<path fill="#a29bfe" stroke="black" d="M314,-633.88C314,-633.88 193.75,-633.88 193.75,-633.88 187.75,-633.88 181.75,-627.88 181.75,-621.88 181.75,-621.88 181.75,-581.62 181.75,-581.62 181.75,-575.62 187.75,-569.62 193.75,-569.62 193.75,-569.62 314,-569.62 314,-569.62 320,-569.62 326,-575.62 326,-581.62 326,-581.62 326,-621.88 326,-621.88 326,-627.88 320,-633.88 314,-633.88"/>
<text xml:space="preserve" text-anchor="middle" x="253.88" y="-620.38" font-family="Times,serif" font-size="10.00">PublishSettingsSheet</text>
<text xml:space="preserve" text-anchor="middle" x="253.88" y="-609.12" font-family="Times,serif" font-size="10.00">PublishSettingsSheet</text>
<text xml:space="preserve" text-anchor="middle" x="253.88" y="-597.88" font-family="Times,serif" font-size="10.00">KeywordBubble</text>
<text xml:space="preserve" text-anchor="middle" x="253.88" y="-586.62" font-family="Times,serif" font-size="10.00">PublishSettingsSheet_Previews</text>
<text xml:space="preserve" text-anchor="middle" x="253.88" y="-575.38" font-family="Times,serif" font-size="10.00">LOC: 354</text>
</g>
<!-- PublishSettingsSheet&#45;&gt;Article -->
<g id="edge4" class="edge">
<title>PublishSettingsSheet&#45;&gt;Article</title>
<path fill="none" stroke="gray" stroke-dasharray="5,2" d="M310.73,-569.13C316.16,-564.95 321.36,-560.47 326,-555.75 358.13,-523.06 384.16,-476.49 399.16,-446.2"/>
<polygon fill="gray" stroke="gray" points="402.12,-448.1 403.33,-437.57 395.82,-445.05 402.12,-448.1"/>
</g>
<!-- MediumStyleEditor -->
<g id="node3" class="node">
<title>MediumStyleEditor</title>
<path fill="#a29bfe" stroke="black" d="M114.62,-647.88C114.62,-647.88 31.12,-647.88 31.12,-647.88 25.13,-647.88 19.12,-641.88 19.12,-635.88 19.12,-635.88 19.12,-595.62 19.12,-595.62 19.12,-589.62 25.12,-583.62 31.12,-583.62 31.12,-583.62 114.62,-583.62 114.62,-583.62 120.62,-583.62 126.62,-589.62 126.62,-595.62 126.62,-595.62 126.62,-635.88 126.62,-635.88 126.62,-641.88 120.62,-647.88 114.62,-647.88"/>
<text xml:space="preserve" text-anchor="middle" x="72.88" y="-634.38" font-family="Times,serif" font-size="10.00">MediumStyleEditor</text>
<text xml:space="preserve" text-anchor="middle" x="72.88" y="-623.12" font-family="Times,serif" font-size="10.00">MediumStyleEditor</text>
<text xml:space="preserve" text-anchor="middle" x="72.88" y="-611.88" font-family="Times,serif" font-size="10.00">PreviewSheet</text>
<text xml:space="preserve" text-anchor="middle" x="72.88" y="-600.62" font-family="Times,serif" font-size="10.00">RichTextPreviewView</text>
<text xml:space="preserve" text-anchor="middle" x="72.88" y="-589.38" font-family="Times,serif" font-size="10.00">LOC: 540</text>
</g>
<!-- PublishSettingsView -->
<g id="node7" class="node">
<title>PublishSettingsView</title>
<path fill="#a29bfe" stroke="black" d="M292.25,-727.5C292.25,-727.5 215.5,-727.5 215.5,-727.5 209.5,-727.5 203.5,-721.5 203.5,-715.5 203.5,-715.5 203.5,-664 203.5,-664 203.5,-658 209.5,-652 215.5,-652 215.5,-652 292.25,-652 292.25,-652 298.25,-652 304.25,-658 304.25,-664 304.25,-664 304.25,-715.5 304.25,-715.5 304.25,-721.5 298.25,-727.5 292.25,-727.5"/>
<text xml:space="preserve" text-anchor="middle" x="253.88" y="-714" font-family="Times,serif" font-size="10.00">PublishSettingsView</text>
<text xml:space="preserve" text-anchor="middle" x="253.88" y="-702.75" font-family="Times,serif" font-size="10.00">PublishSettingsView</text>
<text xml:space="preserve" text-anchor="middle" x="253.88" y="-691.5" font-family="Times,serif" font-size="10.00">CategoryButton</text>
<text xml:space="preserve" text-anchor="middle" x="253.88" y="-680.25" font-family="Times,serif" font-size="10.00">TagBubbleView</text>
<text xml:space="preserve" text-anchor="middle" x="253.88" y="-669" font-family="Times,serif" font-size="10.00">... (+1)</text>
<text xml:space="preserve" text-anchor="middle" x="253.88" y="-657.75" font-family="Times,serif" font-size="10.00">LOC: 512</text>
</g>
<!-- MediumStyleEditor&#45;&gt;PublishSettingsView -->
<g id="edge1" class="edge">
<title>MediumStyleEditor&#45;&gt;PublishSettingsView</title>
<path fill="none" stroke="black" stroke-width="2" d="M127.1,-637.75C147.73,-646.28 171.45,-656.09 192.7,-664.87"/>
<polygon fill="black" stroke="black" stroke-width="2" points="189.85,-667.48 200.43,-668.07 192.53,-661.01 189.85,-667.48"/>
</g>
<!-- MediumStyleEditor&#45;&gt;Article -->
<g id="edge5" class="edge">
<title>MediumStyleEditor&#45;&gt;Article</title>
<path fill="none" stroke="gray" stroke-dasharray="5,2" d="M126.89,-585.87C144.05,-576.98 163.39,-567.76 181.75,-560.75 243.69,-537.11 270.27,-558.66 326,-522.75 356.13,-503.33 380.81,-470.06 396.12,-445.76"/>
<polygon fill="gray" stroke="gray" points="399.09,-447.62 401.31,-437.26 393.11,-443.97 399.09,-447.62"/>
</g>
<!-- SimpleMarkdownView -->
<g id="node4" class="node">
<title>SimpleMarkdownView</title>
<path fill="#a29bfe" stroke="black" d="M297.12,-513.25C297.12,-513.25 210.62,-513.25 210.62,-513.25 204.62,-513.25 198.62,-507.25 198.62,-501.25 198.62,-501.25 198.62,-472.25 198.62,-472.25 198.62,-466.25 204.62,-460.25 210.62,-460.25 210.62,-460.25 297.12,-460.25 297.12,-460.25 303.12,-460.25 309.12,-466.25 309.12,-472.25 309.12,-472.25 309.12,-501.25 309.12,-501.25 309.12,-507.25 303.12,-513.25 297.12,-513.25"/>
<text xml:space="preserve" text-anchor="middle" x="253.88" y="-499.75" font-family="Times,serif" font-size="10.00">SimpleMarkdownView</text>
<text xml:space="preserve" text-anchor="middle" x="253.88" y="-488.5" font-family="Times,serif" font-size="10.00">SimpleMarkdownView</text>
<text xml:space="preserve" text-anchor="middle" x="253.88" y="-477.25" font-family="Times,serif" font-size="10.00">MarkdownElement</text>
<text xml:space="preserve" text-anchor="middle" x="253.88" y="-466" font-family="Times,serif" font-size="10.00">LOC: 123</text>
</g>
<!-- SimpleMarkdownView&#45;&gt;Article -->
<g id="edge6" class="edge">
<title>SimpleMarkdownView&#45;&gt;Article</title>
<path fill="none" stroke="gray" stroke-dasharray="5,2" d="M309.34,-462.32C328.63,-453.66 350.09,-444.04 368.46,-435.8"/>
<polygon fill="gray" stroke="gray" points="369.82,-439.02 377.51,-431.74 366.95,-432.64 369.82,-439.02"/>
</g>
<!-- GridTableEditorView -->
<g id="node5" class="node">
<title>GridTableEditorView</title>
<path fill="#a29bfe" stroke="black" d="M133.75,-368.88C133.75,-368.88 12,-368.88 12,-368.88 6,-368.88 0,-362.88 0,-356.88 0,-356.88 0,-316.62 0,-316.62 0,-310.62 6,-304.62 12,-304.62 12,-304.62 133.75,-304.62 133.75,-304.62 139.75,-304.62 145.75,-310.62 145.75,-316.62 145.75,-316.62 145.75,-356.88 145.75,-356.88 145.75,-362.88 139.75,-368.88 133.75,-368.88"/>
<text xml:space="preserve" text-anchor="middle" x="72.88" y="-355.38" font-family="Times,serif" font-size="10.00">GridTableEditorView</text>
<text xml:space="preserve" text-anchor="middle" x="72.88" y="-344.12" font-family="Times,serif" font-size="10.00">CellPosition</text>
<text xml:space="preserve" text-anchor="middle" x="72.88" y="-332.88" font-family="Times,serif" font-size="10.00">GridTableEditorView</text>
<text xml:space="preserve" text-anchor="middle" x="72.88" y="-321.62" font-family="Times,serif" font-size="10.00">GridTableEditorView_Previews</text>
<text xml:space="preserve" text-anchor="middle" x="72.88" y="-310.38" font-family="Times,serif" font-size="10.00">LOC: 153</text>
</g>
<!-- GridTableEditorView&#45;&gt;TableEditorView -->
<g id="edge2" class="edge">
<title>GridTableEditorView&#45;&gt;TableEditorView</title>
<path fill="none" stroke="black" stroke-width="2" d="M146.17,-368.65C164.16,-376.6 183.13,-384.97 200,-392.41"/>
<polygon fill="black" stroke="black" stroke-width="2" points="196.87,-394.86 207.43,-395.69 199.69,-388.45 196.87,-394.86"/>
</g>
<!-- GridTableEditorView&#45;&gt;Article -->
<g id="edge9" class="edge">
<title>GridTableEditorView&#45;&gt;Article</title>
<path fill="none" stroke="gray" stroke-dasharray="5,2" d="M146.23,-345.29C197.12,-352.28 266.49,-363.81 326,-380.75 340.23,-384.8 355.32,-390.38 368.88,-395.89"/>
<polygon fill="gray" stroke="gray" points="367.4,-399.06 377.97,-399.68 370.09,-392.6 367.4,-399.06"/>
</g>
<!-- GridTable -->
<g id="node11" class="node">
<title>GridTable</title>
<ellipse fill="none" stroke="black" stroke-dasharray="5,2" cx="253.88" cy="-311.75" rx="36.77" ry="20.51"/>
<text xml:space="preserve" text-anchor="middle" x="253.88" y="-313.7" font-family="Times,serif" font-size="9.00">GridTable</text>
<text xml:space="preserve" text-anchor="middle" x="253.88" y="-303.2" font-family="Times,serif" font-size="9.00">(Core)</text>
</g>
<!-- GridTableEditorView&#45;&gt;GridTable -->
<g id="edge7" class="edge">
<title>GridTableEditorView&#45;&gt;GridTable</title>
<path fill="none" stroke="gray" stroke-dasharray="5,2" d="M146.17,-326.65C166.48,-323.82 188.02,-320.81 206.39,-318.24"/>
<polygon fill="gray" stroke="gray" points="206.75,-321.73 216.17,-316.88 205.78,-314.79 206.75,-321.73"/>
</g>
<!-- Portfolio -->
<g id="node12" class="node">
<title>Portfolio</title>
<ellipse fill="none" stroke="black" stroke-dasharray="5,2" cx="253.88" cy="-252.75" rx="52.15" ry="20.51"/>
<text xml:space="preserve" text-anchor="middle" x="253.88" y="-254.7" font-family="Times,serif" font-size="9.00">Portfolio</text>
<text xml:space="preserve" text-anchor="middle" x="253.88" y="-244.2" font-family="Times,serif" font-size="9.00">(Authentication)</text>
</g>
<!-- GridTableEditorView&#45;&gt;Portfolio -->
<g id="edge8" class="edge">
<title>GridTableEditorView&#45;&gt;Portfolio</title>
<path fill="none" stroke="gray" stroke-dasharray="5,2" d="M135.62,-304.14C150.6,-296.55 166.65,-288.66 181.75,-281.75 189.25,-278.32 197.28,-274.85 205.15,-271.56"/>
<polygon fill="gray" stroke="gray" points="206.39,-274.83 214.31,-267.79 203.73,-268.36 206.39,-274.83"/>
</g>
<!-- InfoView -->
<g id="node6" class="node">
<title>InfoView</title>
<path fill="#a29bfe" stroke="black" d="M278.75,-214.25C278.75,-214.25 229,-214.25 229,-214.25 223,-214.25 217,-208.25 217,-202.25 217,-202.25 217,-173.25 217,-173.25 217,-167.25 223,-161.25 229,-161.25 229,-161.25 278.75,-161.25 278.75,-161.25 284.75,-161.25 290.75,-167.25 290.75,-173.25 290.75,-173.25 290.75,-202.25 290.75,-202.25 290.75,-208.25 284.75,-214.25 278.75,-214.25"/>
<text xml:space="preserve" text-anchor="middle" x="253.88" y="-200.75" font-family="Times,serif" font-size="10.00">InfoView</text>
<text xml:space="preserve" text-anchor="middle" x="253.88" y="-189.5" font-family="Times,serif" font-size="10.00">InfoView</text>
<text xml:space="preserve" text-anchor="middle" x="253.88" y="-178.25" font-family="Times,serif" font-size="10.00">CategoryChip</text>
<text xml:space="preserve" text-anchor="middle" x="253.88" y="-167" font-family="Times,serif" font-size="10.00">LOC: 189</text>
</g>
<!-- InfoView&#45;&gt;Article -->
<g id="edge10" class="edge">
<title>InfoView&#45;&gt;Article</title>
<path fill="none" stroke="gray" stroke-dasharray="5,2" d="M290.89,-199.72C303.23,-205.2 316.34,-212.76 326,-222.75 370.77,-269.02 395.07,-342.31 405.95,-383.99"/>
<polygon fill="gray" stroke="gray" points="402.55,-384.79 408.37,-393.64 409.34,-383.09 402.55,-384.79"/>
</g>
<!-- PublishSettingsView&#45;&gt;Article -->
<g id="edge11" class="edge">
<title>PublishSettingsView&#45;&gt;Article</title>
<path fill="none" stroke="gray" stroke-dasharray="5,2" d="M304.51,-662.83C312.42,-656.97 319.98,-650.25 326,-642.75 373.79,-583.26 397.54,-494.6 407.37,-447.63"/>
<polygon fill="gray" stroke="gray" points="410.8,-448.33 409.34,-437.84 403.94,-446.96 410.8,-448.33"/>
</g>
<!-- SettingsView -->
<g id="node13" class="node">
<title>SettingsView</title>
<ellipse fill="none" stroke="black" stroke-dasharray="5,2" cx="414.15" cy="-689.75" rx="52.15" ry="20.51"/>
<text xml:space="preserve" text-anchor="middle" x="414.15" y="-691.7" font-family="Times,serif" font-size="9.00">SettingsView</text>
<text xml:space="preserve" text-anchor="middle" x="414.15" y="-681.2" font-family="Times,serif" font-size="9.00">(Authentication)</text>
</g>
<!-- PublishSettingsView&#45;&gt;SettingsView -->
<g id="edge12" class="edge">
<title>PublishSettingsView&#45;&gt;SettingsView</title>
<path fill="none" stroke="gray" stroke-dasharray="5,2" d="M304.52,-689.75C319.04,-689.75 335.11,-689.75 350.33,-689.75"/>
<polygon fill="gray" stroke="gray" points="350.26,-693.25 360.26,-689.75 350.26,-686.25 350.26,-693.25"/>
</g>
<!-- TopicsEditView -->
<g id="node8" class="node">
<title>TopicsEditView</title>
<path fill="#a29bfe" stroke="black" d="M282.5,-143.62C282.5,-143.62 225.25,-143.62 225.25,-143.62 219.25,-143.62 213.25,-137.62 213.25,-131.62 213.25,-131.62 213.25,-113.88 213.25,-113.88 213.25,-107.88 219.25,-101.88 225.25,-101.88 225.25,-101.88 282.5,-101.88 282.5,-101.88 288.5,-101.88 294.5,-107.88 294.5,-113.88 294.5,-113.88 294.5,-131.62 294.5,-131.62 294.5,-137.62 288.5,-143.62 282.5,-143.62"/>
<text xml:space="preserve" text-anchor="middle" x="253.88" y="-130.12" font-family="Times,serif" font-size="10.00">TopicsEditView</text>
<text xml:space="preserve" text-anchor="middle" x="253.88" y="-118.88" font-family="Times,serif" font-size="10.00">TopicsEditView</text>
<text xml:space="preserve" text-anchor="middle" x="253.88" y="-107.62" font-family="Times,serif" font-size="10.00">LOC: 69</text>
</g>
<!-- TopicsEditView&#45;&gt;Article -->
<g id="edge13" class="edge">
<title>TopicsEditView&#45;&gt;Article</title>
<path fill="none" stroke="gray" stroke-dasharray="5,2" d="M294.74,-132.76C306.09,-137.27 317.63,-143.69 326,-152.75 387.3,-219.1 405.56,-329.64 410.94,-383.82"/>
<polygon fill="gray" stroke="gray" points="407.44,-383.95 411.82,-393.6 414.41,-383.33 407.44,-383.95"/>
</g>
<!-- RichTextView -->
<g id="node9" class="node">
<title>RichTextView</title>
<path fill="#a29bfe" stroke="black" d="M279.12,-84.25C279.12,-84.25 228.62,-84.25 228.62,-84.25 222.62,-84.25 216.62,-78.25 216.62,-72.25 216.62,-72.25 216.62,-43.25 216.62,-43.25 216.62,-37.25 222.62,-31.25 228.62,-31.25 228.62,-31.25 279.12,-31.25 279.12,-31.25 285.12,-31.25 291.12,-37.25 291.12,-43.25 291.12,-43.25 291.12,-72.25 291.12,-72.25 291.12,-78.25 285.12,-84.25 279.12,-84.25"/>
<text xml:space="preserve" text-anchor="middle" x="253.88" y="-70.75" font-family="Times,serif" font-size="10.00">RichTextView</text>
<text xml:space="preserve" text-anchor="middle" x="253.88" y="-59.5" font-family="Times,serif" font-size="10.00">Coordinator</text>
<text xml:space="preserve" text-anchor="middle" x="253.88" y="-48.25" font-family="Times,serif" font-size="10.00">RichTextView</text>
<text xml:space="preserve" text-anchor="middle" x="253.88" y="-37" font-family="Times,serif" font-size="10.00">LOC: 300</text>
</g>
<!-- RichTextView&#45;&gt;Article -->
<g id="edge14" class="edge">
<title>RichTextView&#45;&gt;Article</title>
<path fill="none" stroke="gray" stroke-dasharray="5,2" d="M291.44,-68.74C303.98,-74.15 317.08,-81.91 326,-92.75 397.77,-179.97 410.79,-321.06 412.9,-383.85"/>
<polygon fill="gray" stroke="gray" points="409.39,-383.56 413.15,-393.47 416.39,-383.38 409.39,-383.56"/>
</g>
</g>
</svg>
