<?xml version="1.0" encoding="UTF-8" standalone="no"?>
<!DOCTYPE svg PUBLIC "-//W3C//DTD SVG 1.1//EN"
 "http://www.w3.org/Graphics/SVG/1.1/DTD/svg11.dtd">
<!-- Generated by graphviz version 13.1.0 (20250701.0955)
 -->
<!-- Pages: 1 -->
<svg width="1206pt" height="1315pt"
 viewBox="0.00 0.00 1206.00 1315.00" xmlns="http://www.w3.org/2000/svg" xmlns:xlink="http://www.w3.org/1999/xlink">
<g id="graph0" class="graph" transform="scale(4.16667 4.16667) rotate(0) translate(4 311.62)">
<polygon fill="white" stroke="none" points="-4,4 -4,-311.62 285.5,-311.62 285.5,4 -4,4"/>
<text xml:space="preserve" text-anchor="middle" x="140.75" y="-12.05" font-family="Times,serif" font-size="16.00">Chat 模組依賴圖</text>
<!-- ToastView -->
<g id="node1" class="node">
<title>ToastView</title>
<path fill="#0984e3" stroke="black" d="M75.25,-73C75.25,-73 40.5,-73 40.5,-73 34.5,-73 28.5,-67 28.5,-61 28.5,-61 28.5,-43.25 28.5,-43.25 28.5,-37.25 34.5,-31.25 40.5,-31.25 40.5,-31.25 75.25,-31.25 75.25,-31.25 81.25,-31.25 87.25,-37.25 87.25,-43.25 87.25,-43.25 87.25,-61 87.25,-61 87.25,-67 81.25,-73 75.25,-73"/>
<text xml:space="preserve" text-anchor="middle" x="57.88" y="-59.5" font-family="Times,serif" font-size="10.00">ToastView</text>
<text xml:space="preserve" text-anchor="middle" x="57.88" y="-48.25" font-family="Times,serif" font-size="10.00">ToastView</text>
<text xml:space="preserve" text-anchor="middle" x="57.88" y="-37" font-family="Times,serif" font-size="10.00">LOC: 47</text>
</g>
<!-- GroupAvatarPicker -->
<g id="node2" class="node">
<title>GroupAvatarPicker</title>
<path fill="#0984e3" stroke="black" d="M92.88,-143.62C92.88,-143.62 22.87,-143.62 22.87,-143.62 16.88,-143.62 10.87,-137.62 10.87,-131.62 10.87,-131.62 10.87,-102.62 10.87,-102.62 10.87,-96.62 16.87,-90.62 22.87,-90.62 22.87,-90.62 92.88,-90.62 92.88,-90.62 98.88,-90.62 104.88,-96.62 104.88,-102.62 104.88,-102.62 104.88,-131.62 104.88,-131.62 104.88,-137.62 98.88,-143.62 92.88,-143.62"/>
<text xml:space="preserve" text-anchor="middle" x="57.88" y="-130.12" font-family="Times,serif" font-size="10.00">GroupAvatarPicker</text>
<text xml:space="preserve" text-anchor="middle" x="57.88" y="-118.88" font-family="Times,serif" font-size="10.00">GroupAvatarPicker</text>
<text xml:space="preserve" text-anchor="middle" x="57.88" y="-107.62" font-family="Times,serif" font-size="10.00">PreviewWrapper</text>
<text xml:space="preserve" text-anchor="middle" x="57.88" y="-96.38" font-family="Times,serif" font-size="10.00">LOC: 229</text>
</g>
<!-- PaymentViews -->
<g id="node3" class="node">
<title>PaymentViews</title>
<path fill="#0984e3" stroke="black" d="M98.5,-236.88C98.5,-236.88 17.25,-236.88 17.25,-236.88 11.25,-236.88 5.25,-230.88 5.25,-224.88 5.25,-224.88 5.25,-173.38 5.25,-173.38 5.25,-167.38 11.25,-161.38 17.25,-161.38 17.25,-161.38 98.5,-161.38 98.5,-161.38 104.5,-161.38 110.5,-167.38 110.5,-173.38 110.5,-173.38 110.5,-224.88 110.5,-224.88 110.5,-230.88 104.5,-236.88 98.5,-236.88"/>
<text xml:space="preserve" text-anchor="middle" x="57.88" y="-223.38" font-family="Times,serif" font-size="10.00">PaymentViews</text>
<text xml:space="preserve" text-anchor="middle" x="57.88" y="-212.12" font-family="Times,serif" font-size="10.00">PaymentOptionsView</text>
<text xml:space="preserve" text-anchor="middle" x="57.88" y="-200.88" font-family="Times,serif" font-size="10.00">PaymentMethodView</text>
<text xml:space="preserve" text-anchor="middle" x="57.88" y="-189.62" font-family="Times,serif" font-size="10.00">PaymentOptionRow</text>
<text xml:space="preserve" text-anchor="middle" x="57.88" y="-178.38" font-family="Times,serif" font-size="10.00">... (+6)</text>
<text xml:space="preserve" text-anchor="middle" x="57.88" y="-167.12" font-family="Times,serif" font-size="10.00">LOC: 666</text>
</g>
<!-- WalletTransaction -->
<g id="node5" class="node">
<title>WalletTransaction</title>
<ellipse fill="none" stroke="black" stroke-dasharray="5,2" cx="216.63" cy="-258.12" rx="56.39" ry="20.51"/>
<text xml:space="preserve" text-anchor="middle" x="216.63" y="-260.07" font-family="Times,serif" font-size="9.00">WalletTransaction</text>
<text xml:space="preserve" text-anchor="middle" x="216.63" y="-249.57" font-family="Times,serif" font-size="9.00">(Authentication)</text>
</g>
<!-- PaymentViews&#45;&gt;WalletTransaction -->
<g id="edge1" class="edge">
<title>PaymentViews&#45;&gt;WalletTransaction</title>
<path fill="none" stroke="gray" stroke-dasharray="5,2" d="M110.64,-218.61C128.36,-225.28 148.14,-232.73 165.72,-239.34"/>
<polygon fill="gray" stroke="gray" points="164.33,-242.56 174.92,-242.8 166.79,-236.01 164.33,-242.56"/>
</g>
<!-- PlatformSubscription -->
<g id="node6" class="node">
<title>PlatformSubscription</title>
<ellipse fill="none" stroke="black" stroke-dasharray="5,2" cx="216.63" cy="-199.12" rx="64.88" ry="20.51"/>
<text xml:space="preserve" text-anchor="middle" x="216.63" y="-201.07" font-family="Times,serif" font-size="9.00">PlatformSubscription</text>
<text xml:space="preserve" text-anchor="middle" x="216.63" y="-190.57" font-family="Times,serif" font-size="9.00">(Authentication)</text>
</g>
<!-- PaymentViews&#45;&gt;PlatformSubscription -->
<g id="edge2" class="edge">
<title>PaymentViews&#45;&gt;PlatformSubscription</title>
<path fill="none" stroke="gray" stroke-dasharray="5,2" d="M110.64,-199.12C120.1,-199.12 130.14,-199.12 140.13,-199.12"/>
<polygon fill="gray" stroke="gray" points="139.82,-202.63 149.82,-199.13 139.82,-195.63 139.82,-202.63"/>
</g>
<!-- Subscription -->
<g id="node7" class="node">
<title>Subscription</title>
<ellipse fill="none" stroke="black" stroke-dasharray="5,2" cx="216.63" cy="-140.12" rx="52.15" ry="20.51"/>
<text xml:space="preserve" text-anchor="middle" x="216.63" y="-142.07" font-family="Times,serif" font-size="9.00">Subscription</text>
<text xml:space="preserve" text-anchor="middle" x="216.63" y="-131.57" font-family="Times,serif" font-size="9.00">(Authentication)</text>
</g>
<!-- PaymentViews&#45;&gt;Subscription -->
<g id="edge3" class="edge">
<title>PaymentViews&#45;&gt;Subscription</title>
<path fill="none" stroke="gray" stroke-dasharray="5,2" d="M110.64,-179.64C129.04,-172.72 149.66,-164.95 167.72,-158.16"/>
<polygon fill="gray" stroke="gray" points="168.77,-161.5 176.89,-154.7 166.3,-154.95 168.77,-161.5"/>
</g>
<!-- NativeRichTextEditor -->
<g id="node4" class="node">
<title>NativeRichTextEditor</title>
<path fill="#0984e3" stroke="black" d="M103.75,-307.62C103.75,-307.62 12,-307.62 12,-307.62 6,-307.62 0,-301.62 0,-295.62 0,-295.62 0,-266.62 0,-266.62 0,-260.62 6,-254.62 12,-254.62 12,-254.62 103.75,-254.62 103.75,-254.62 109.75,-254.62 115.75,-260.62 115.75,-266.62 115.75,-266.62 115.75,-295.62 115.75,-295.62 115.75,-301.62 109.75,-307.62 103.75,-307.62"/>
<text xml:space="preserve" text-anchor="middle" x="57.88" y="-294.12" font-family="Times,serif" font-size="10.00">NativeRichTextEditor</text>
<text xml:space="preserve" text-anchor="middle" x="57.88" y="-282.88" font-family="Times,serif" font-size="10.00">NativeRichTextEditor</text>
<text xml:space="preserve" text-anchor="middle" x="57.88" y="-271.62" font-family="Times,serif" font-size="10.00">SubtopicsSelectionView</text>
<text xml:space="preserve" text-anchor="middle" x="57.88" y="-260.38" font-family="Times,serif" font-size="10.00">LOC: 451</text>
</g>
</g>
</svg>
