<?xml version="1.0" encoding="UTF-8" standalone="no"?>
<!DOCTYPE svg PUBLIC "-//W3C//DTD SVG 1.1//EN"
 "http://www.w3.org/Graphics/SVG/1.1/DTD/svg11.dtd">
<!-- Generated by graphviz version 13.1.0 (20250701.0955)
 -->
<!-- Pages: 1 -->
<svg width="811pt" height="2400pt"
 viewBox="0.00 0.00 811.00 2400.00" xmlns="http://www.w3.org/2000/svg" xmlns:xlink="http://www.w3.org/1999/xlink">
<g id="graph0" class="graph" transform="scale(2.95385 2.95385) rotate(0) translate(4 808.5)">
<polygon fill="white" stroke="none" points="-4,4 -4,-808.5 270.55,-808.5 270.55,4 -4,4"/>
<text xml:space="preserve" text-anchor="middle" x="133.27" y="-12.05" font-family="Times,serif" font-size="16.00">Trading 模組依賴圖</text>
<!-- StockMarketView -->
<g id="node1" class="node">
<title>StockMarketView</title>
<path fill="#00b894" stroke="black" d="M95.88,-260.75C95.88,-260.75 30.37,-260.75 30.37,-260.75 24.38,-260.75 18.38,-254.75 18.38,-248.75 18.38,-248.75 18.38,-197.25 18.38,-197.25 18.38,-191.25 24.38,-185.25 30.38,-185.25 30.38,-185.25 95.88,-185.25 95.88,-185.25 101.88,-185.25 107.88,-191.25 107.88,-197.25 107.88,-197.25 107.88,-248.75 107.88,-248.75 107.88,-254.75 101.88,-260.75 95.88,-260.75"/>
<text xml:space="preserve" text-anchor="middle" x="63.12" y="-247.25" font-family="Times,serif" font-size="10.00">StockMarketView</text>
<text xml:space="preserve" text-anchor="middle" x="63.12" y="-236" font-family="Times,serif" font-size="10.00">StockMarketView</text>
<text xml:space="preserve" text-anchor="middle" x="63.12" y="-224.75" font-family="Times,serif" font-size="10.00">SearchBar</text>
<text xml:space="preserve" text-anchor="middle" x="63.12" y="-213.5" font-family="Times,serif" font-size="10.00">StockListRow</text>
<text xml:space="preserve" text-anchor="middle" x="63.12" y="-202.25" font-family="Times,serif" font-size="10.00">... (+2)</text>
<text xml:space="preserve" text-anchor="middle" x="63.12" y="-191" font-family="Times,serif" font-size="10.00">LOC: 392</text>
</g>
<!-- Stock -->
<g id="node11" class="node">
<title>Stock</title>
<ellipse fill="none" stroke="black" stroke-dasharray="5,2" cx="214.4" cy="-146" rx="52.15" ry="20.51"/>
<text xml:space="preserve" text-anchor="middle" x="214.4" y="-147.95" font-family="Times,serif" font-size="9.00">Stock</text>
<text xml:space="preserve" text-anchor="middle" x="214.4" y="-137.45" font-family="Times,serif" font-size="9.00">(Authentication)</text>
</g>
<!-- StockMarketView&#45;&gt;Stock -->
<g id="edge1" class="edge">
<title>StockMarketView&#45;&gt;Stock</title>
<path fill="none" stroke="gray" stroke-dasharray="5,2" d="M108.1,-200.31C128.17,-189.96 151.82,-177.77 171.61,-167.56"/>
<polygon fill="gray" stroke="gray" points="172.94,-170.81 180.23,-163.11 169.73,-164.59 172.94,-170.81"/>
</g>
<!-- DynamicPieChart -->
<g id="node2" class="node">
<title>DynamicPieChart</title>
<path fill="#00b894" stroke="black" d="M102.25,-354.75C102.25,-354.75 24,-354.75 24,-354.75 18,-354.75 12,-348.75 12,-342.75 12,-342.75 12,-291.25 12,-291.25 12,-285.25 18,-279.25 24,-279.25 24,-279.25 102.25,-279.25 102.25,-279.25 108.25,-279.25 114.25,-285.25 114.25,-291.25 114.25,-291.25 114.25,-342.75 114.25,-342.75 114.25,-348.75 108.25,-354.75 102.25,-354.75"/>
<text xml:space="preserve" text-anchor="middle" x="63.12" y="-341.25" font-family="Times,serif" font-size="10.00">DynamicPieChart</text>
<text xml:space="preserve" text-anchor="middle" x="63.12" y="-330" font-family="Times,serif" font-size="10.00">PieChartData</text>
<text xml:space="preserve" text-anchor="middle" x="63.12" y="-318.75" font-family="Times,serif" font-size="10.00">DynamicPieChart</text>
<text xml:space="preserve" text-anchor="middle" x="63.12" y="-307.5" font-family="Times,serif" font-size="10.00">DynamicLegendItem</text>
<text xml:space="preserve" text-anchor="middle" x="63.12" y="-296.25" font-family="Times,serif" font-size="10.00">... (+1)</text>
<text xml:space="preserve" text-anchor="middle" x="63.12" y="-285" font-family="Times,serif" font-size="10.00">LOC: 201</text>
</g>
<!-- PortfolioView -->
<g id="node12" class="node">
<title>PortfolioView</title>
<ellipse fill="none" stroke="black" stroke-dasharray="5,2" cx="214.4" cy="-317" rx="52.15" ry="20.51"/>
<text xml:space="preserve" text-anchor="middle" x="214.4" y="-318.95" font-family="Times,serif" font-size="9.00">PortfolioView</text>
<text xml:space="preserve" text-anchor="middle" x="214.4" y="-308.45" font-family="Times,serif" font-size="9.00">(Authentication)</text>
</g>
<!-- DynamicPieChart&#45;&gt;PortfolioView -->
<g id="edge2" class="edge">
<title>DynamicPieChart&#45;&gt;PortfolioView</title>
<path fill="none" stroke="gray" stroke-dasharray="5,2" d="M114.66,-317C126.2,-317 138.6,-317 150.58,-317"/>
<polygon fill="gray" stroke="gray" points="150.38,-320.5 160.38,-317 150.38,-313.5 150.38,-320.5"/>
</g>
<!-- StockService -->
<g id="node3" class="node">
<title>StockService</title>
<path fill="#00b894" stroke="black" d="M85.75,-166.88C85.75,-166.88 40.5,-166.88 40.5,-166.88 34.5,-166.88 28.5,-160.88 28.5,-154.88 28.5,-154.88 28.5,-137.12 28.5,-137.12 28.5,-131.12 34.5,-125.12 40.5,-125.12 40.5,-125.12 85.75,-125.12 85.75,-125.12 91.75,-125.12 97.75,-131.12 97.75,-137.12 97.75,-137.12 97.75,-154.88 97.75,-154.88 97.75,-160.88 91.75,-166.88 85.75,-166.88"/>
<text xml:space="preserve" text-anchor="middle" x="63.12" y="-153.38" font-family="Times,serif" font-size="10.00">StockService</text>
<text xml:space="preserve" text-anchor="middle" x="63.12" y="-142.12" font-family="Times,serif" font-size="10.00">StockService</text>
<text xml:space="preserve" text-anchor="middle" x="63.12" y="-130.88" font-family="Times,serif" font-size="10.00">LOC: 135</text>
</g>
<!-- StockService&#45;&gt;Stock -->
<g id="edge3" class="edge">
<title>StockService&#45;&gt;Stock</title>
<path fill="none" stroke="gray" stroke-dasharray="5,2" d="M98,-146C113.52,-146 132.45,-146 150.44,-146"/>
<polygon fill="gray" stroke="gray" points="150.27,-149.5 160.27,-146 150.27,-142.5 150.27,-149.5"/>
</g>
<!-- TableGridPicker -->
<g id="node4" class="node">
<title>TableGridPicker</title>
<path fill="#00b894" stroke="black" d="M113.5,-437.12C113.5,-437.12 12.75,-437.12 12.75,-437.12 6.75,-437.12 0.75,-431.12 0.75,-425.12 0.75,-425.12 0.75,-384.88 0.75,-384.88 0.75,-378.88 6.75,-372.88 12.75,-372.88 12.75,-372.88 113.5,-372.88 113.5,-372.88 119.5,-372.88 125.5,-378.88 125.5,-384.88 125.5,-384.88 125.5,-425.12 125.5,-425.12 125.5,-431.12 119.5,-437.12 113.5,-437.12"/>
<text xml:space="preserve" text-anchor="middle" x="63.12" y="-423.62" font-family="Times,serif" font-size="10.00">TableGridPicker</text>
<text xml:space="preserve" text-anchor="middle" x="63.12" y="-412.38" font-family="Times,serif" font-size="10.00">TableGridPicker</text>
<text xml:space="preserve" text-anchor="middle" x="63.12" y="-401.12" font-family="Times,serif" font-size="10.00">TableGridPickerSheet</text>
<text xml:space="preserve" text-anchor="middle" x="63.12" y="-389.88" font-family="Times,serif" font-size="10.00">TableGridPicker_Previews</text>
<text xml:space="preserve" text-anchor="middle" x="63.12" y="-378.62" font-family="Times,serif" font-size="10.00">LOC: 211</text>
</g>
<!-- CreateGroupView -->
<g id="node5" class="node">
<title>CreateGroupView</title>
<path fill="#00b894" stroke="black" d="M95.88,-496.88C95.88,-496.88 30.37,-496.88 30.37,-496.88 24.38,-496.88 18.38,-490.88 18.38,-484.88 18.38,-484.88 18.38,-467.12 18.38,-467.12 18.38,-461.12 24.38,-455.12 30.38,-455.12 30.38,-455.12 95.88,-455.12 95.88,-455.12 101.88,-455.12 107.88,-461.12 107.88,-467.12 107.88,-467.12 107.88,-484.88 107.88,-484.88 107.88,-490.88 101.88,-496.88 95.88,-496.88"/>
<text xml:space="preserve" text-anchor="middle" x="63.12" y="-483.38" font-family="Times,serif" font-size="10.00">CreateGroupView</text>
<text xml:space="preserve" text-anchor="middle" x="63.12" y="-472.12" font-family="Times,serif" font-size="10.00">CreateGroupView</text>
<text xml:space="preserve" text-anchor="middle" x="63.12" y="-460.88" font-family="Times,serif" font-size="10.00">LOC: 288</text>
</g>
<!-- NotificationView -->
<g id="node6" class="node">
<title>NotificationView</title>
<path fill="#00b894" stroke="black" d="M108.25,-590.75C108.25,-590.75 18,-590.75 18,-590.75 12,-590.75 6,-584.75 6,-578.75 6,-578.75 6,-527.25 6,-527.25 6,-521.25 12,-515.25 18,-515.25 18,-515.25 108.25,-515.25 108.25,-515.25 114.25,-515.25 120.25,-521.25 120.25,-527.25 120.25,-527.25 120.25,-578.75 120.25,-578.75 120.25,-584.75 114.25,-590.75 108.25,-590.75"/>
<text xml:space="preserve" text-anchor="middle" x="63.12" y="-577.25" font-family="Times,serif" font-size="10.00">NotificationView</text>
<text xml:space="preserve" text-anchor="middle" x="63.12" y="-566" font-family="Times,serif" font-size="10.00">NotificationViewModel</text>
<text xml:space="preserve" text-anchor="middle" x="63.12" y="-554.75" font-family="Times,serif" font-size="10.00">NotificationView</text>
<text xml:space="preserve" text-anchor="middle" x="63.12" y="-543.5" font-family="Times,serif" font-size="10.00">NotificationRowView</text>
<text xml:space="preserve" text-anchor="middle" x="63.12" y="-532.25" font-family="Times,serif" font-size="10.00">... (+3)</text>
<text xml:space="preserve" text-anchor="middle" x="63.12" y="-521" font-family="Times,serif" font-size="10.00">LOC: 422</text>
</g>
<!-- Notification -->
<g id="node7" class="node">
<title>Notification</title>
<path fill="#00b894" stroke="black" d="M93.25,-650.88C93.25,-650.88 33,-650.88 33,-650.88 27,-650.88 21,-644.88 21,-638.88 21,-638.88 21,-621.12 21,-621.12 21,-615.12 27,-609.12 33,-609.12 33,-609.12 93.25,-609.12 93.25,-609.12 99.25,-609.12 105.25,-615.12 105.25,-621.12 105.25,-621.12 105.25,-638.88 105.25,-638.88 105.25,-644.88 99.25,-650.88 93.25,-650.88"/>
<text xml:space="preserve" text-anchor="middle" x="63.12" y="-637.38" font-family="Times,serif" font-size="10.00">Notification</text>
<text xml:space="preserve" text-anchor="middle" x="63.12" y="-626.12" font-family="Times,serif" font-size="10.00">AppNotification</text>
<text xml:space="preserve" text-anchor="middle" x="63.12" y="-614.88" font-family="Times,serif" font-size="10.00">LOC: 49</text>
</g>
<!-- PerformanceChart -->
<g id="node8" class="node">
<title>PerformanceChart</title>
<path fill="#00b894" stroke="black" d="M114.25,-733.12C114.25,-733.12 12,-733.12 12,-733.12 6,-733.12 0,-727.12 0,-721.12 0,-721.12 0,-680.88 0,-680.88 0,-674.88 6,-668.88 12,-668.88 12,-668.88 114.25,-668.88 114.25,-668.88 120.25,-668.88 126.25,-674.88 126.25,-680.88 126.25,-680.88 126.25,-721.12 126.25,-721.12 126.25,-727.12 120.25,-733.12 114.25,-733.12"/>
<text xml:space="preserve" text-anchor="middle" x="63.12" y="-719.62" font-family="Times,serif" font-size="10.00">PerformanceChart</text>
<text xml:space="preserve" text-anchor="middle" x="63.12" y="-708.38" font-family="Times,serif" font-size="10.00">PerformanceDataPoint</text>
<text xml:space="preserve" text-anchor="middle" x="63.12" y="-697.12" font-family="Times,serif" font-size="10.00">PerformanceChart</text>
<text xml:space="preserve" text-anchor="middle" x="63.12" y="-685.88" font-family="Times,serif" font-size="10.00">PerformanceDataGenerator</text>
<text xml:space="preserve" text-anchor="middle" x="63.12" y="-674.62" font-family="Times,serif" font-size="10.00">LOC: 279</text>
</g>
<!-- PieChartView -->
<g id="node9" class="node">
<title>PieChartView</title>
<path fill="#00b894" stroke="black" d="M87.25,-804.5C87.25,-804.5 39,-804.5 39,-804.5 33,-804.5 27,-798.5 27,-792.5 27,-792.5 27,-763.5 27,-763.5 27,-757.5 33,-751.5 39,-751.5 39,-751.5 87.25,-751.5 87.25,-751.5 93.25,-751.5 99.25,-757.5 99.25,-763.5 99.25,-763.5 99.25,-792.5 99.25,-792.5 99.25,-798.5 93.25,-804.5 87.25,-804.5"/>
<text xml:space="preserve" text-anchor="middle" x="63.12" y="-791" font-family="Times,serif" font-size="10.00">PieChartView</text>
<text xml:space="preserve" text-anchor="middle" x="63.12" y="-779.75" font-family="Times,serif" font-size="10.00">PieChartView</text>
<text xml:space="preserve" text-anchor="middle" x="63.12" y="-768.5" font-family="Times,serif" font-size="10.00">PieSlice</text>
<text xml:space="preserve" text-anchor="middle" x="63.12" y="-757.25" font-family="Times,serif" font-size="10.00">LOC: 92</text>
</g>
<!-- TradingView -->
<g id="node10" class="node">
<title>TradingView</title>
<path fill="#00b894" stroke="black" d="M98.88,-106.75C98.88,-106.75 27.38,-106.75 27.38,-106.75 21.37,-106.75 15.38,-100.75 15.38,-94.75 15.38,-94.75 15.38,-43.25 15.38,-43.25 15.38,-37.25 21.38,-31.25 27.38,-31.25 27.38,-31.25 98.88,-31.25 98.88,-31.25 104.88,-31.25 110.88,-37.25 110.88,-43.25 110.88,-43.25 110.88,-94.75 110.88,-94.75 110.88,-100.75 104.88,-106.75 98.88,-106.75"/>
<text xml:space="preserve" text-anchor="middle" x="63.12" y="-93.25" font-family="Times,serif" font-size="10.00">TradingView</text>
<text xml:space="preserve" text-anchor="middle" x="63.12" y="-82" font-family="Times,serif" font-size="10.00">TradingView</text>
<text xml:space="preserve" text-anchor="middle" x="63.12" y="-70.75" font-family="Times,serif" font-size="10.00">HotStocksListView</text>
<text xml:space="preserve" text-anchor="middle" x="63.12" y="-59.5" font-family="Times,serif" font-size="10.00">HoldingsListView</text>
<text xml:space="preserve" text-anchor="middle" x="63.12" y="-48.25" font-family="Times,serif" font-size="10.00">... (+3)</text>
<text xml:space="preserve" text-anchor="middle" x="63.12" y="-37" font-family="Times,serif" font-size="10.00">LOC: 202</text>
</g>
<!-- TradingView&#45;&gt;Stock -->
<g id="edge5" class="edge">
<title>TradingView&#45;&gt;Stock</title>
<path fill="none" stroke="gray" stroke-dasharray="5,2" d="M111.36,-93.36C130.81,-103.4 153.16,-114.93 171.97,-124.63"/>
<polygon fill="gray" stroke="gray" points="170.18,-127.64 180.67,-129.12 173.39,-121.42 170.18,-127.64"/>
</g>
<!-- TradingModels -->
<g id="node13" class="node">
<title>TradingModels</title>
<ellipse fill="none" stroke="black" stroke-dasharray="5,2" cx="214.4" cy="-69" rx="52.15" ry="20.51"/>
<text xml:space="preserve" text-anchor="middle" x="214.4" y="-70.95" font-family="Times,serif" font-size="9.00">TradingModels</text>
<text xml:space="preserve" text-anchor="middle" x="214.4" y="-60.45" font-family="Times,serif" font-size="9.00">(Authentication)</text>
</g>
<!-- TradingView&#45;&gt;TradingModels -->
<g id="edge4" class="edge">
<title>TradingView&#45;&gt;TradingModels</title>
<path fill="none" stroke="gray" stroke-dasharray="5,2" d="M111.36,-69C123.78,-69 137.37,-69 150.47,-69"/>
<polygon fill="gray" stroke="gray" points="150.3,-72.5 160.3,-69 150.3,-65.5 150.3,-72.5"/>
</g>
</g>
</svg>
